<?xml version="1.0" encoding="UTF-8"?>
<svg width="196px" height="150px" viewBox="0 0 712 544" version="1.1" xmlns="http://www.w3.org/2000/svg" xmlns:xlink="http://www.w3.org/1999/xlink">
    <g stroke="none" stroke-width="1" fill="none" fill-rule="evenodd">
        <g id="Group" transform="translate(69.000000, 208.000000)" fill="#FFFFFF" fill-rule="nonzero">
            <g id="Combined-Shape">
                <path d="M37.3613746,0 L107,0.00199996875 L85.5384674,21.3942857 L37.3613746,21.3942857 C35.1636467,21.3942857 33.0574907,21.7904762 31.0429068,22.5828571 C29.0283229,23.3752381 27.288455,24.5028571 25.823303,25.9657143 C24.3581511,27.4285714 23.2287631,29.1657143 22.4351391,31.1771429 C21.6415152,33.1885714 21.2447032,35.2304762 21.2447032,37.3028571 C21.2447032,41.6914286 22.7709031,45.5009524 25.823303,48.7314286 C28.8757029,51.9619048 32.7217267,53.5771429 37.3613746,53.5771429 L37.3613746,53.5771429 L69.2284294,53.5771429 C79.606589,53.5771429 88.3975006,57.1733333 95.6011643,64.3657143 C103.04902,71.68 106.772948,80.4571429 106.772948,90.6971429 C106.772948,100.937143 103.04902,109.775238 95.6011643,117.211429 C88.3975006,124.40381 79.606589,128 69.2284294,128 L69.2284294,128 L0,128 L21.4405827,106.605714 L69.2284294,106.605714 C71.4261573,106.605714 73.5323132,106.209524 75.5468971,105.417143 C77.561481,104.624762 79.301349,103.527619 80.7665009,102.125714 C82.2316529,100.72381 83.3610408,99.0171429 84.1546648,97.0057143 C84.9482888,94.9942857 85.3451007,92.8914286 85.3451007,90.6971429 C85.3451007,86.4304762 83.7578528,82.712381 80.5833569,79.5428571 C77.530957,76.3733333 73.7459812,74.7885714 69.2284294,74.7885714 L69.2284294,74.7885714 L37.3613746,74.7885714 C26.983215,74.7885714 18.1617793,71.1619048 10.8970676,63.9085714 C3.63235586,56.6552381 0,47.7866667 0,37.3028571 C0,27.0628571 3.66287986,18.3466667 10.9886396,11.1542857 C18.0702073,3.71809524 26.861119,0 37.3613746,0 L37.3613746,0 Z M202.908702,2.84217094e-14 C220.092039,2.84217094e-14 234.795004,5.94984323 247.017597,17.8495297 L247.518499,18.3419074 L248.009986,18.8342857 C260.669995,31.3904762 267,46.4457143 267,64 C267,81.7980952 260.669995,96.8533333 248.009986,109.165714 C235.593438,121.721905 220.559677,128 202.908702,128 C185.725365,128 171.0224,122.050157 158.799806,110.15047 L158.298904,109.658093 L157.807418,109.165714 C145.269139,96.7314286 139,81.6761905 139,64 C139,46.4457143 145.269139,31.3904762 157.807418,18.8342857 C170.102235,6.27809524 185.135996,2.84217094e-14 202.908702,2.84217094e-14 Z M320.523605,0 L320.526119,85.3986656 C320.526119,97.1124422 329.99845,106.608334 341.682403,106.605714 L341.682403,106.605714 L384,106.605714 L384,128 L341.393886,127.998 C317.980389,127.998 299,108.970399 299,85.4986641 L299,85.4986641 L299,0 L320.523605,0 Z M480,0 L522.788571,85.3942857 L544,128 L520.228571,128 L498.834286,85.3942857 L480,47.7257143 L461.165714,85.3942857 L439.771429,128 L416,128 L480,0 Z M600.283333,0 L600.888731,0.00372345847 C612.362815,0.14521488 622.213793,4.31921182 630.441667,12.5257143 C638.813889,20.8761905 643,30.9028571 643,42.6057143 C643,51.5047619 640.494444,59.5504762 635.483333,66.7428571 C630.472222,73.9352381 624.177778,79.0552381 616.6,82.1028571 L616.6,82.1028571 L643,128 L618.433333,128 L581.216667,64 L600.283333,64 L600.757134,63.9953918 C606.420246,63.884796 611.273423,61.7834749 615.316667,57.6914286 C619.472222,53.4857143 621.55,48.4571429 621.55,42.6057143 C621.55,36.8761905 619.472222,31.9085714 615.316667,27.7028571 C611.161111,23.4971429 606.15,21.3942857 600.283333,21.3942857 L600.283333,21.3942857 L556.466667,21.3942857 L544,0 L600.283333,0 Z M202.908702,21.3942857 C191.222539,21.3942857 181.179743,25.6 172.780314,34.0114286 C164.502615,42.3009524 160.363766,52.2971429 160.363766,64 C160.363766,75.7028571 164.502615,85.76 172.780314,94.1714286 C181.179743,102.460952 191.222539,106.605714 202.908702,106.605714 C214.594864,106.605714 224.576795,102.460952 232.854494,94.1714286 C241.253923,85.76 245.453638,75.7028571 245.453638,64 C245.453638,52.2971429 241.284356,42.2704762 232.945792,33.92 C224.607228,25.5695238 214.594864,21.3942857 202.908702,21.3942857 Z"></path>
            </g>
        </g>
        <path d="M272.083448,0 C306.280823,0 339.004657,6.30704574 369.154516,17.8210419 L361.659661,37.4450008 C333.837658,26.8200492 303.640434,21 272.083448,21 C133.417447,21 21.0064427,133.376528 21.0064427,272 C21.0064427,410.623472 133.417447,523 272.083448,523 C376.734503,523 466.431495,458.993682 504.139929,368.004181 L526.734301,368.004063 C487.917426,470.850833 388.54551,544 272.083448,544 C121.815909,544 0,422.221452 0,272 C0,121.778548 121.815909,0 272.083448,0 Z M478.660322,94.9722296 C499.859993,119.672348 516.703495,148.218202 528,179.41933 L514.514501,206.458683 C504.640057,169.867363 486.697204,136.586137 462.711367,108.639808 L478.660322,94.9722296 Z M422,27 C439.673112,27 454,41.326888 454,59 C454,76.673112 439.673112,91 422,91 C404.326888,91 390,76.673112 390,59 C390,41.326888 404.326888,27 422,27 Z" id="Orbit" fill="#FFFFFF" fill-rule="nonzero"></path>
    </g>
</svg>